<svg width="54" height="43" viewBox="0 0 54 43" fill="none" xmlns="http://www.w3.org/2000/svg">
<path d="M52.9616 3.71136C54.1 6.65693 52.5035 8.6736 49.4136 10.6601C46.9203 12.2629 43.7437 13.9993 40.3779 16.968C37.0784 19.8781 33.8581 23.3832 30.9965 26.8333C28.1464 30.2693 25.724 33.5627 24.0123 36.0013C22.9061 37.5771 21.3627 39.9277 21.3627 39.9277C20.2742 41.6499 18.3172 42.6923 16.2188 42.6661C14.12 42.64 12.1922 41.5499 11.1508 39.8003C8.48875 35.328 6.43456 33.5619 5.49043 32.9275C2.96421 31.2299 0 30.9789 0 27.0227C0 23.8811 2.65304 21.3341 5.92576 21.3341C8.23632 21.4195 10.3839 22.328 12.2868 23.6069C13.5032 24.4243 14.7917 25.5053 16.1319 26.9283C17.7049 24.7829 19.6004 22.3075 21.7253 19.7459C24.8112 16.0259 28.4536 12.0349 32.3597 8.58976C36.1995 5.20307 40.6389 2.03293 45.3445 0.356826C48.4131 -0.73608 51.8232 0.765812 52.9616 3.71136Z" fill="#C85344"/>
</svg>
