<svg width="48" height="48" viewBox="0 0 48 48" fill="none" xmlns="http://www.w3.org/2000/svg">
<path d="M23.3372 10.4245C23.6132 9.85893 24.3868 9.85895 24.6628 10.4245L26.2898 13.7596C26.3978 13.9809 26.6006 14.135 26.8356 14.1741L30.3724 14.7625C30.9718 14.8622 31.2108 15.6295 30.782 16.0784L28.25 18.7303C28.0824 18.906 28.005 19.1547 28.042 19.3998L28.6 23.1008C28.6946 23.7276 28.069 24.202 27.5276 23.914L24.3376 22.2166C24.1256 22.1036 23.8744 22.1036 23.6624 22.2166L20.4724 23.914C19.9311 24.202 19.3054 23.7276 19.3999 23.1008L19.958 19.3998C19.995 19.1547 19.9176 18.906 19.7499 18.7303L17.2179 16.0784C16.7893 15.6295 17.0282 14.8622 17.6276 14.7625L21.1644 14.1741C21.3994 14.135 21.6022 13.9809 21.7102 13.7596L23.3372 10.4245Z" fill="#C85344" stroke="#C85344" stroke-width="1.5" stroke-linecap="round" stroke-linejoin="round"/>
<path d="M38 18C38 25.732 31.732 32 24 32C16.268 32 10 25.732 10 18C10 10.268 16.268 4 24 4C31.732 4 38 10.268 38 18Z" stroke="#C85344" stroke-width="1.5" stroke-linecap="round" stroke-linejoin="round"/>
<path d="M26 32.6848L29.2528 41.3026C29.9082 43.039 30.236 43.9072 30.806 44C31.3774 43.9156 32.0774 42.9608 32.7616 41.2344C33.2516 39.9982 33.4964 39.3802 34.001 39.047C34.1558 38.9448 34.325 38.864 34.504 38.807C35.0872 38.6216 35.758 38.803 37.0994 39.1656C38.5338 39.5534 39.5302 39.4452 39.9236 39.1656C40.0394 39.0834 39.9236 39.1594 39.9236 39.1594C40.1552 38.7486 39.8426 38.1078 39.2176 36.8262L34.9122 28" stroke="#C85344" stroke-width="1.5" stroke-linecap="round" stroke-linejoin="round"/>
<path d="M22 32.6842L18.7472 41.3006C18.0918 43.0366 17.4434 43.9072 16.8734 44C16.3019 43.9156 15.9598 43.0526 15.2756 41.3264C14.7857 40.0906 14.5035 39.3786 13.999 39.0452C13.8443 38.943 13.6749 38.8624 13.4961 38.8054C12.9128 38.62 12.242 38.8014 10.9005 39.164C9.46616 39.5516 8.4698 39.4372 8.0763 39.1576C7.84474 38.747 8.15732 38.1062 8.78246 36.8248L13.0877 28" stroke="#C85344" stroke-width="1.5" stroke-linecap="round" stroke-linejoin="round"/>
</svg>
