<svg width="48" height="35" viewBox="0 0 48 35" fill="none" xmlns="http://www.w3.org/2000/svg">
<g clip-path="url(#clip0_229_866)">
<mask id="mask0_229_866" style="mask-type:luminance" maskUnits="userSpaceOnUse" x="-1" y="-1" width="20" height="22">
<path d="M18.788 -0.0283508H-0.0307617V20.9542H18.788V-0.0283508Z" fill="white"/>
</mask>
<g mask="url(#mask0_229_866)">
<path d="M6.5599 20.7153C6.10092 20.7148 5.65477 20.5654 5.28965 20.2901L0.834514 16.9493C0.614641 16.7835 0.429184 16.5772 0.288353 16.3418C0.148525 16.1052 0.0568115 15.8439 0.0183568 15.5724C-0.0178031 15.3018 -0.00113926 15.0269 0.0674471 14.7625C0.138134 14.4973 0.260425 14.2484 0.427459 14.0296L10.5282 0.832176C10.8665 0.389937 11.3682 0.0986493 11.9232 0.0222724C12.1975 -0.0153747 12.4766 0.0010219 12.7444 0.0705187C13.0123 0.140015 13.2636 0.261241 13.484 0.427224L17.9391 3.76808C18.3856 4.10228 18.6798 4.59819 18.7573 5.14694C18.8328 5.69583 18.6858 6.25201 18.3482 6.69386L8.2454 19.8872C8.07951 20.1063 7.87083 20.2901 7.63175 20.4278C7.39274 20.5662 7.12867 20.657 6.85444 20.6951C6.75678 20.7079 6.65842 20.7146 6.5599 20.7153ZM12.2117 1.43151C12.1088 1.43027 12.0072 1.45315 11.915 1.49832C11.8228 1.54382 11.7424 1.60962 11.6798 1.69067L1.57908 14.8881C1.47318 15.0277 1.4269 15.2029 1.45022 15.376C1.46228 15.4615 1.49124 15.5437 1.53546 15.6181C1.57969 15.6924 1.63832 15.7574 1.70795 15.8093L6.16306 19.1502C6.23272 19.2025 6.31213 19.2407 6.39673 19.2626C6.48132 19.2845 6.56943 19.2896 6.65604 19.2777C6.74236 19.2658 6.82547 19.2371 6.90059 19.1933C6.9757 19.1496 7.04135 19.0916 7.09378 19.0226L17.1945 5.82523C17.2474 5.75628 17.2859 5.67769 17.3081 5.59396C17.3302 5.51023 17.3354 5.423 17.3234 5.33727C17.2989 5.16522 17.2071 5.0096 17.0677 4.90397L12.6126 1.56311C12.4967 1.47779 12.3561 1.43165 12.2117 1.43151Z" fill="#C85344"/>
</g>
<mask id="mask1_229_866" style="mask-type:luminance" maskUnits="userSpaceOnUse" x="29" y="-1" width="20" height="22">
<path d="M48.0347 -0.0283508H29.1526V20.9542H48.0347V-0.0283508Z" fill="white"/>
</mask>
<g mask="url(#mask1_229_866)">
<path d="M41.438 20.7153C41.3402 20.7146 41.2425 20.7079 41.1455 20.6951C40.8706 20.6571 40.6059 20.5663 40.3662 20.4278C40.1279 20.289 39.9194 20.1054 39.7525 19.8872L29.6518 6.68981C29.3144 6.24786 29.1674 5.69177 29.2427 5.14289C29.3201 4.59413 29.6144 4.09823 30.0609 3.76403L34.516 0.423173C34.7368 0.257227 34.9884 0.136044 35.2566 0.0665541C35.5248 -0.00293541 35.8042 -0.0193643 36.0788 0.0182213C36.6332 0.0946798 37.1343 0.386007 37.4718 0.828125L47.5746 14.0255C47.741 14.2444 47.8626 14.4934 47.9325 14.7585C48.0031 15.0225 48.0198 15.2979 47.9816 15.5684C47.9439 15.8397 47.8529 16.1011 47.7136 16.3378C47.5721 16.5733 47.386 16.7795 47.1655 16.9452L42.7103 20.2861C42.3453 20.5635 41.8982 20.7143 41.438 20.7153ZM35.7883 1.43151C35.641 1.4296 35.4972 1.47585 35.3792 1.56311L30.9241 4.90397C30.8544 4.95587 30.7958 5.02086 30.7516 5.09521C30.7074 5.16956 30.6784 5.25182 30.6663 5.33727C30.6544 5.423 30.6596 5.51023 30.6817 5.59396C30.7038 5.67769 30.7424 5.75628 30.7952 5.82523L40.896 19.0226C41.0031 19.1615 41.161 19.2531 41.3357 19.2777C41.422 19.2896 41.5098 19.2844 41.5941 19.2625C41.6783 19.2406 41.7574 19.2024 41.8267 19.1502L46.2818 15.8093C46.3514 15.7574 46.41 15.6924 46.4543 15.6181C46.4985 15.5437 46.5275 15.4615 46.5395 15.376C46.5517 15.2906 46.5466 15.2037 46.5244 15.1202C46.5023 15.0368 46.4636 14.9586 46.4107 14.8901L36.3099 1.69068C36.2478 1.60916 36.1673 1.54326 36.0747 1.49832C35.9857 1.45441 35.8877 1.43155 35.7883 1.43151Z" fill="#C85344"/>
</g>
<path d="M33.2395 25.755C32.5161 25.7541 31.815 25.5075 31.2533 25.0564L23.7463 18.9659C23.5983 18.8448 23.5043 18.6711 23.4845 18.482C23.4755 18.3886 23.4852 18.2943 23.5131 18.2046C23.54 18.1142 23.5853 18.0302 23.6461 17.9576C23.7061 17.8855 23.7797 17.8257 23.8629 17.7814C23.9464 17.7366 24.0383 17.7091 24.1329 17.7005C24.3236 17.6823 24.5138 17.739 24.6627 17.8584L32.1676 23.9468C32.3427 24.0879 32.5444 24.1932 32.7608 24.2566C32.9781 24.3179 33.2052 24.3371 33.4297 24.3133C33.6539 24.2883 33.8708 24.2195 34.0679 24.1108C34.2655 24.002 34.4399 23.8562 34.5814 23.6816C34.8434 23.3474 34.9716 22.9292 34.9414 22.5072C34.9092 22.0845 34.7188 21.6888 34.4075 21.3977L27.7514 15.2384C27.6122 15.1085 27.5306 14.9295 27.5243 14.7403C27.5224 14.646 27.5396 14.5523 27.5747 14.4647C27.6098 14.3771 27.6622 14.2973 27.7289 14.23C27.7931 14.1612 27.8704 14.1058 27.9565 14.0668C28.0425 14.0279 28.1355 14.0063 28.23 14.0032C28.3251 13.9993 28.4199 14.0141 28.5091 14.0468C28.5983 14.0795 28.68 14.1294 28.7496 14.1936L35.4057 20.3509C35.9789 20.8896 36.3295 21.6198 36.3896 22.3999C36.449 23.1799 36.2111 23.9535 35.7227 24.5684C35.4293 24.9397 35.0535 25.239 34.6243 25.4431C34.1929 25.6507 33.7191 25.7574 33.2395 25.755Z" fill="#C85344"/>
<path d="M22.564 10.1886C22.3895 10.1889 22.2208 10.1263 22.0895 10.0124C21.8011 9.76339 21.5229 9.54472 21.214 9.32402C20.5806 8.86892 19.8938 8.49158 19.1685 8.20028L17.1496 7.39037C17.0611 7.35604 16.9809 7.3036 16.9143 7.23649C16.846 7.1714 16.7923 7.09273 16.7568 7.00566C16.7186 6.91946 16.6984 6.82647 16.6975 6.73233C16.6975 6.6387 16.7156 6.54592 16.7507 6.45898C16.7878 6.37208 16.8405 6.29252 16.9062 6.22411C16.9741 6.15811 17.0539 6.10523 17.1414 6.0682C17.2281 6.03185 17.3213 6.01326 17.4155 6.01354C17.5109 6.0116 17.6057 6.02952 17.6937 6.06617L19.7126 6.87608C20.5471 7.21049 21.3376 7.64355 22.067 8.16585C22.4106 8.41287 22.7195 8.65585 23.0386 8.93324C23.1511 9.02811 23.2305 9.15562 23.2657 9.29769C23.3027 9.43847 23.2941 9.5872 23.2411 9.72289C23.1904 9.85979 23.0983 9.97788 22.9772 10.061C22.856 10.1445 22.7117 10.189 22.564 10.1886Z" fill="#C85344"/>
<path d="M30.7789 29.849C30.0664 29.8481 29.3765 29.6019 28.8274 29.1525L22.5538 24.046C22.4799 23.9871 22.4187 23.9141 22.3738 23.8314C22.3295 23.7484 22.3017 23.6576 22.292 23.5641C22.2825 23.4702 22.2915 23.3753 22.3186 23.2847C22.3471 23.1945 22.3929 23.1107 22.4536 23.0377C22.5142 22.9662 22.5877 22.9064 22.6704 22.8616C22.7554 22.8185 22.8476 22.7911 22.9425 22.7806C23.0369 22.7717 23.1321 22.7813 23.2227 22.8089C23.3138 22.8371 23.3986 22.8825 23.4723 22.9425L29.7459 28.047C29.9116 28.1846 30.1036 28.2879 30.3104 28.3507C30.5175 28.4134 30.735 28.4355 30.9507 28.4155C31.1655 28.3947 31.3741 28.3321 31.5643 28.2312C31.7552 28.1297 31.9241 27.9922 32.0614 27.8263C32.1985 27.66 32.3013 27.4688 32.3641 27.2634C32.4264 27.0582 32.4473 26.8428 32.4255 26.6296C32.4022 26.4166 32.3369 26.2102 32.2332 26.0222C32.1317 25.8338 31.9925 25.6677 31.8241 25.5342L23.7443 18.97C23.5963 18.8489 23.5023 18.6751 23.4825 18.486C23.4649 18.297 23.523 18.1088 23.6441 17.9616C23.7042 17.8892 23.7781 17.8292 23.8616 17.7851C23.9452 17.7409 24.0367 17.7136 24.1309 17.7045C24.3217 17.6859 24.5121 17.7426 24.6607 17.8624L32.7384 24.4267C33.2089 24.8052 33.5556 25.3132 33.7346 25.8866C33.9148 26.4601 33.9205 27.0734 33.751 27.6501C33.5811 28.2267 33.2431 28.7409 32.7793 29.1282C32.3156 29.5163 31.7462 29.76 31.1429 29.8288C31.0221 29.8425 30.9005 29.8493 30.7789 29.849Z" fill="#C85344"/>
<path d="M27.5489 32.7707C26.8688 32.7728 26.2108 32.532 25.6956 32.0924L22.564 29.4441C22.491 29.3836 22.4312 29.3093 22.388 29.2254C22.3447 29.1416 22.3189 29.05 22.3124 28.9561C22.3048 28.8624 22.3159 28.7681 22.3451 28.6787C22.3747 28.5893 22.4219 28.5068 22.4842 28.4357C22.5451 28.3643 22.6195 28.3052 22.7031 28.2616C22.7881 28.2198 22.8805 28.1944 22.9751 28.1867C23.0697 28.1801 23.1648 28.191 23.2553 28.2191C23.3466 28.2475 23.4308 28.2944 23.5028 28.3568L26.6366 31.0051C26.7819 31.1286 26.951 31.2216 27.1336 31.2785C27.3168 31.3348 27.5094 31.354 27.7002 31.3352C27.8904 31.3165 28.0747 31.26 28.2423 31.1692C28.4103 31.078 28.5578 30.954 28.6759 30.8047C28.9004 30.5166 29.0045 30.1542 28.9664 29.7923C28.9262 29.4282 28.7451 29.0937 28.4612 28.8589L23.5397 24.8539C23.4652 24.7947 23.404 24.721 23.3597 24.6373C23.3141 24.5547 23.2863 24.4637 23.2778 24.37C23.2688 24.2766 23.2786 24.1823 23.3065 24.0926C23.333 24.002 23.3783 23.9179 23.4394 23.8456C23.4993 23.7725 23.5738 23.7125 23.6583 23.6694C23.7418 23.6246 23.8337 23.5971 23.9283 23.5885C24.0227 23.5795 24.1179 23.5892 24.2086 23.6168C24.2997 23.6439 24.3846 23.6886 24.4581 23.7484L29.3673 27.7534C29.9419 28.2261 30.3086 28.9012 30.3901 29.6364C30.4712 30.3718 30.2599 31.1097 29.801 31.6936C29.5637 31.9956 29.2664 32.2465 28.9275 32.4306C28.5887 32.6147 28.2158 32.729 27.8312 32.7667C27.7432 32.7667 27.6471 32.7707 27.5489 32.7707Z" fill="#C85344"/>
<path d="M10.8637 23.793C10.7522 23.7927 10.6423 23.7671 10.5425 23.718C10.4434 23.6707 10.3566 23.6014 10.2889 23.5155C9.78781 22.8666 9.32344 22.1906 8.89791 21.4908L7.51719 19.221C7.46751 19.141 7.43451 19.052 7.42011 18.9591C7.40571 18.8663 7.41021 18.7715 7.43334 18.6804C7.48064 18.4964 7.59885 18.3379 7.76267 18.239C7.84384 18.1906 7.93387 18.1585 8.02759 18.1446C8.12132 18.1307 8.21689 18.1353 8.30883 18.158C8.49492 18.2034 8.65526 18.3199 8.75473 18.482L10.1355 20.7518C10.5343 21.4067 10.9693 22.0394 11.4384 22.6469C11.5188 22.7534 11.569 22.8793 11.5837 23.0114C11.5961 23.1444 11.5714 23.2782 11.5121 23.3981C11.4517 23.5174 11.3589 23.6177 11.2441 23.6877C11.1298 23.7574 10.998 23.7939 10.8637 23.793Z" fill="#C85344"/>
<path d="M15.8732 28.6342C15.7791 28.6344 15.6858 28.6158 15.5991 28.5795C15.5109 28.5437 15.431 28.4907 15.3639 28.4236C15.2478 28.3057 15.1756 28.1522 15.1594 27.9883C15.1426 27.8235 15.1846 27.658 15.278 27.5205C15.3712 27.3833 15.5091 27.2818 15.6687 27.233C15.829 27.1862 16.0007 27.1947 16.1555 27.2573C16.3095 27.3213 16.4366 27.4357 16.5155 27.5813C16.5941 27.7277 16.6193 27.8964 16.5871 28.0591C16.5532 28.2189 16.4643 28.362 16.3355 28.4641C16.2065 28.5729 16.0428 28.6331 15.8732 28.6342Z" fill="#C85344"/>
<mask id="mask2_229_866" style="mask-type:luminance" maskUnits="userSpaceOnUse" x="19" y="27" width="8" height="9">
<path d="M26.9702 27.9741H19.8784V35.002H26.9702V27.9741Z" fill="white"/>
</mask>
<g mask="url(#mask2_229_866)">
<path d="M24.3233 35C23.7187 35 23.1329 34.7917 22.6665 34.4108L20.398 32.5521C20.2506 32.4308 20.1573 32.2569 20.1382 32.0681C20.1293 31.9744 20.1391 31.8798 20.1672 31.7898C20.1953 31.6998 20.241 31.6162 20.3019 31.5437C20.3623 31.4714 20.4366 31.4115 20.5205 31.3678C20.6044 31.324 20.6963 31.2971 20.7907 31.2886C20.9811 31.2707 21.1709 31.3282 21.3185 31.4486L23.589 33.3073C23.7949 33.4778 24.0549 33.571 24.3233 33.5705C24.5586 33.5712 24.7885 33.5006 24.982 33.368C25.1746 33.2343 25.3216 33.0458 25.4034 32.8274C25.4846 32.6087 25.4961 32.3705 25.4361 32.1451C25.3773 31.9198 25.2502 31.7177 25.072 31.566L22.5642 29.4441C22.4912 29.3832 22.4308 29.3089 22.3862 29.2254C22.341 29.1415 22.3145 29.049 22.3085 28.9541C22.3002 28.8605 22.3107 28.7662 22.3392 28.6767C22.3696 28.5871 22.4168 28.504 22.4783 28.4317C22.5396 28.359 22.6156 28.2997 22.7013 28.2576C22.7866 28.2146 22.8798 28.1891 22.9754 28.1826C23.0702 28.1748 23.1656 28.1865 23.2556 28.217C23.3466 28.247 23.4307 28.2945 23.5031 28.3568L26.0129 30.4767C26.4142 30.8197 26.6998 31.2762 26.8311 31.7847C26.966 32.2925 26.9396 32.8291 26.7555 33.3215C26.5707 33.8128 26.2389 34.2366 25.8043 34.5363C25.3701 34.8371 24.8533 34.9989 24.3233 35Z" fill="#C85344"/>
</g>
<path d="M18.3646 30.6751C18.2705 30.6754 18.1772 30.6568 18.0905 30.6205C18.0032 30.5851 17.9239 30.5328 17.8573 30.4666C17.7401 30.3494 17.6677 30.1955 17.6528 30.0312C17.6366 29.8674 17.6793 29.7032 17.7735 29.5676C17.8658 29.4304 18.0042 29.33 18.1642 29.2841C18.3241 29.2379 18.4951 29.2472 18.6489 29.3104C18.8014 29.3751 18.927 29.4894 19.0049 29.6344C19.0825 29.7796 19.1071 29.947 19.0744 30.1082C19.0408 30.2676 18.9527 30.4107 18.8249 30.5131C18.6949 30.618 18.5323 30.6752 18.3646 30.6751Z" fill="#C85344"/>
<path d="M13.0012 26.1862C12.882 26.1864 12.7646 26.1572 12.6596 26.1012C12.5547 26.0455 12.4649 25.9656 12.3978 25.8683C12.3321 25.7702 12.292 25.6575 12.2812 25.5403C12.2683 25.4231 12.2859 25.3047 12.3323 25.1961C12.3761 25.0877 12.4464 24.9917 12.5369 24.9167C12.6288 24.8422 12.7376 24.7907 12.8539 24.7669C12.9709 24.7435 13.0919 24.7497 13.2057 24.7851C13.32 24.8174 13.4237 24.8788 13.5064 24.9633C13.606 25.0629 13.673 25.1899 13.6987 25.3277C13.724 25.464 13.7091 25.6046 13.6557 25.7327C13.5997 25.8617 13.5074 25.972 13.3898 26.0505C13.2761 26.1317 13.1412 26.1788 13.0012 26.1862Z" fill="#C85344"/>
<path d="M20.1891 16.6374C19.5912 16.6377 19.0041 16.479 18.4893 16.1778C17.3254 15.4975 16.8713 14.4183 17.2109 13.1407C17.3984 12.4597 17.7639 11.8395 18.2705 11.3427L18.567 11.0511C19.4248 10.1048 20.5106 9.38878 21.7233 8.96968C22.9352 8.54928 24.2347 8.43854 25.5013 8.64774C25.8492 8.70472 26.2061 8.63262 26.5036 8.44527L30.1978 6.12287C30.2783 6.07242 30.3679 6.03803 30.4617 6.02163C30.5549 6.00341 30.6508 6.00341 30.744 6.02163C30.8374 6.04162 30.9258 6.08019 31.0038 6.13502C31.0852 6.18794 31.1549 6.25686 31.2083 6.3375C31.2584 6.41757 31.2931 6.50612 31.3106 6.59869C31.328 6.69171 31.328 6.78711 31.3106 6.88013C31.29 6.97188 31.251 7.05863 31.196 7.13525C31.1413 7.21209 31.0718 7.27747 30.9915 7.32761L27.2973 9.65C26.6998 10.0242 25.9843 10.1683 25.2866 10.055C24.2576 9.88588 23.2021 9.97712 22.2183 10.3202C21.2324 10.6626 20.35 11.2463 19.6532 12.0169L19.6266 12.0433L19.3178 12.349C18.9916 12.6669 18.756 13.0643 18.6346 13.5011C18.4566 14.1652 18.6346 14.5823 19.2482 14.9427C19.8271 15.2788 20.6801 15.2869 21.0892 14.9569L21.1158 14.9387L21.9483 14.313C22.2428 14.0875 22.561 13.894 22.8974 13.736C24.2802 13.0961 25.6466 13.2014 26.6836 13.3634C26.7333 13.3712 26.7819 13.3841 26.8289 13.4019L29.1117 14.2644C29.2017 14.2973 29.2842 14.3475 29.3544 14.4121C29.4246 14.4768 29.4812 14.5546 29.5208 14.641C29.5595 14.7267 29.5807 14.8191 29.5832 14.913C29.5856 15.0068 29.5693 15.1002 29.5351 15.1877C29.5025 15.2771 29.452 15.3591 29.3867 15.4287C29.3213 15.4983 29.2423 15.5541 29.1546 15.5927C29.0683 15.6318 28.975 15.6534 28.8801 15.6561C28.7853 15.6589 28.6908 15.6429 28.6023 15.6089L26.3932 14.7726C25.1659 14.5924 24.3149 14.6714 23.5172 15.0399C23.2739 15.1563 23.0436 15.2974 22.8299 15.4611L22.0117 16.0685C21.4879 16.4591 20.8446 16.66 20.1891 16.6374Z" fill="#C85344"/>
<path d="M35.6309 22.9021C35.4756 22.9024 35.3243 22.8534 35.1993 22.7624C35.0748 22.6709 34.9831 22.5425 34.9374 22.3959C34.8893 22.2512 34.8893 22.0951 34.9374 21.9504C34.989 21.8057 35.0857 21.6809 35.2136 21.5941L39.7137 18.5914C39.8724 18.4848 40.0673 18.4448 40.2558 18.48C40.4437 18.517 40.6096 18.6253 40.718 18.7817C40.8253 18.9397 40.865 19.1333 40.8285 19.3203C40.7905 19.5061 40.6804 19.6697 40.5217 19.7758L36.0216 22.7786C35.9064 22.8569 35.7705 22.8999 35.6309 22.9021Z" fill="#C85344"/>
<path d="M11.5654 26.9455C11.1022 26.9402 10.651 26.7993 10.2686 26.5406C9.88568 26.2861 9.58801 25.9245 9.41356 25.5019C9.23748 25.0797 9.19261 24.6151 9.28469 24.1675C9.37643 23.72 9.59991 23.3092 9.92698 22.9871L12.6864 20.2739C12.9023 20.0602 13.1588 19.8909 13.4412 19.7758C13.7234 19.6607 14.0257 19.6016 14.331 19.6017C14.7931 19.604 15.2443 19.7414 15.6278 19.9965C16.0102 20.2516 16.3078 20.613 16.4829 21.0352C16.659 21.4581 16.7038 21.9234 16.6117 22.3716C16.5195 22.8184 16.2961 23.2283 15.9694 23.55L13.208 26.2632C12.9938 26.478 12.7377 26.6474 12.4552 26.7613C12.174 26.8808 11.8715 26.9435 11.5654 26.9455ZM14.3228 21.0433C14.0884 21.0437 13.8635 21.1353 13.6969 21.2985L10.9375 24.0116C10.8556 24.093 10.7903 24.1893 10.7452 24.2951C10.6998 24.4022 10.6762 24.5171 10.6756 24.6332C10.6755 24.7486 10.6984 24.8628 10.7431 24.9694C10.7862 25.0764 10.851 25.1735 10.9334 25.2549C11.015 25.3406 11.113 25.4095 11.2218 25.4573C11.3297 25.5006 11.4449 25.5233 11.5613 25.5241C11.6778 25.5252 11.7932 25.5031 11.9009 25.4593C12.0091 25.4159 12.1073 25.3512 12.1893 25.269L14.9487 22.5558C15.0738 22.4334 15.1593 22.277 15.1942 22.1063C15.2294 21.9359 15.2123 21.7589 15.1451 21.5981C15.0807 21.433 14.9664 21.2916 14.8178 21.1932C14.6715 21.0957 14.4992 21.0435 14.3228 21.0433Z" fill="#C85344"/>
<path d="M16.5195 31.8414C16.0576 31.8417 15.606 31.7057 15.2226 31.4506C14.8375 31.1969 14.5377 30.8353 14.3615 30.4119C14.1858 29.989 14.1402 29.5241 14.2306 29.0756C14.3218 28.6268 14.5461 28.2151 14.8749 27.8931L17.6343 25.1799C17.8518 24.9662 18.1097 24.797 18.3933 24.682C18.6769 24.567 18.9806 24.5084 19.2871 24.5097C19.9021 24.5144 20.4904 24.7597 20.9235 25.1921C21.1395 25.4069 21.3107 25.6618 21.4272 25.9422C21.5438 26.2225 21.6034 26.5229 21.6026 26.826C21.6019 27.1296 21.5406 27.43 21.4223 27.71C21.304 27.9901 21.131 28.2443 20.9133 28.458L18.1538 31.1712C17.7193 31.5986 17.1321 31.8394 16.5195 31.8414ZM19.2789 25.9392C19.0445 25.9395 18.8196 26.0312 18.653 26.1943L15.8936 28.9075C15.7287 29.0725 15.6362 29.2951 15.6358 29.5271C15.6351 29.6421 15.6575 29.7561 15.7018 29.8625C15.746 29.9689 15.8112 30.0655 15.8936 30.1466C16.0558 30.3097 16.2761 30.4034 16.5072 30.4079C16.7418 30.4096 16.9676 30.3193 17.1352 30.1568L19.8946 27.4436C20.0197 27.3204 20.1052 27.1633 20.1401 26.9921C20.1741 26.8216 20.1571 26.6449 20.091 26.4839C20.0253 26.3195 19.9113 26.1784 19.7637 26.0789C19.6191 25.9871 19.4507 25.9386 19.2789 25.9392Z" fill="#C85344"/>
<path d="M18.7961 34.101C18.3348 34.0997 17.8842 33.963 17.5013 33.7082C17.1177 33.4531 16.8193 33.0908 16.6443 32.6675C16.4693 32.245 16.4244 31.7808 16.5154 31.3331C16.608 30.8853 16.8313 30.4742 17.1577 30.1507L18.4688 28.8629C18.9083 28.4316 19.5028 28.1906 20.1216 28.1927C20.7408 28.1951 21.3337 28.4405 21.7703 28.8751C22.2057 29.3095 22.4492 29.8971 22.4474 30.5091C22.4466 30.8126 22.3853 31.113 22.267 31.3931C22.1488 31.6731 21.9758 31.9273 21.758 32.141L20.4489 33.4308C20.2329 33.6439 19.9763 33.8125 19.6941 33.9269C19.4093 34.043 19.1041 34.1022 18.7961 34.101ZM20.1052 29.6222C19.9887 29.6221 19.8733 29.6448 19.7657 29.689C19.6588 29.7337 19.5616 29.7983 19.4793 29.8794L18.1682 31.1671C18.0023 31.3325 17.9083 31.5556 17.9063 31.7887C17.9061 32.0214 17.9987 32.2449 18.1641 32.4103C18.2462 32.4925 18.344 32.5576 18.4518 32.6021C18.5596 32.6466 18.6753 32.6695 18.792 32.6695C18.9089 32.6701 19.0246 32.6479 19.1327 32.6041C19.2408 32.5603 19.3392 32.4958 19.4221 32.4144L20.7312 31.1266C20.8563 31.0042 20.9417 30.8478 20.9766 30.6771C21.0118 30.5067 20.9947 30.3297 20.9275 30.1689C20.8611 30.005 20.7473 29.8641 20.6003 29.7639C20.4543 29.6674 20.2829 29.6153 20.1073 29.6141L20.1052 29.6222Z" fill="#C85344"/>
<path d="M14.2368 29.4744C13.7197 29.4739 13.2145 29.3202 12.7865 29.033C12.3579 28.7483 12.0247 28.3437 11.8292 27.8708C11.6325 27.3972 11.582 26.8765 11.684 26.3745C11.787 25.8738 12.0375 25.4144 12.404 25.0544L16.1861 21.3349C16.4282 21.0964 16.7152 20.9072 17.0309 20.7781C17.3463 20.6465 17.6848 20.5777 18.0271 20.5756C18.5433 20.5779 19.0472 20.7315 19.4753 21.017C19.9046 21.3024 20.2385 21.7076 20.4346 22.1813C20.6307 22.6543 20.6806 23.1744 20.5778 23.6755C20.476 24.1769 20.2261 24.637 19.8599 24.9977L16.0777 28.7152C15.8361 28.9543 15.549 29.1436 15.2329 29.272C14.9178 29.4045 14.5791 29.4733 14.2368 29.4744ZM18.0189 22.0152C17.8665 22.0144 17.7155 22.044 17.575 22.1023C17.4331 22.159 17.3043 22.2437 17.1966 22.3513L13.4145 26.0688C13.2505 26.2299 13.1387 26.4358 13.0933 26.66C13.0487 26.8841 13.0707 27.1162 13.1567 27.3282C13.2456 27.5394 13.3949 27.7202 13.5863 27.8486C13.7771 27.9788 14.003 28.0493 14.2347 28.051C14.3876 28.0524 14.5392 28.0235 14.6806 27.966C14.8219 27.9081 14.9504 27.8235 15.0591 27.7169L18.8392 23.9975C18.948 23.8918 19.0346 23.7658 19.0939 23.6268C19.1532 23.4877 19.1841 23.3385 19.1848 23.1876C19.1848 23.0371 19.1548 22.8881 19.0966 22.7491C19.0383 22.6101 18.9529 22.4839 18.8453 22.3777C18.7381 22.2693 18.6102 22.1832 18.4689 22.1246C18.327 22.066 18.1747 22.0357 18.021 22.0355L18.0189 22.0152Z" fill="#C85344"/>
</g>
<defs>
<clipPath id="clip0_229_866">
<rect width="48" height="35" fill="white"/>
</clipPath>
</defs>
</svg>
