<svg width="48" height="48" viewBox="0 0 48 48" fill="none" xmlns="http://www.w3.org/2000/svg">
<path d="M16 38H26C31.6568 38 34.4852 38 36.2426 36.2426C38 34.4852 38 31.6568 38 26C38 22.2732 38 19.774 37.4976 17.9999M11 14.0766C8.48418 14.2178 6.89596 14.6187 5.75736 15.7573C4 17.5146 4 20.343 4 26C4 30.4874 4 33.195 4.87732 35" stroke="#C85344" stroke-width="1.5" stroke-linecap="round"/>
<path d="M38 21L40.0544 21.3424C41.417 21.5694 42.0982 21.683 42.6152 22.0132C43.1236 22.338 43.5224 22.8088 43.7592 23.3636C44 23.9278 44 24.6186 44 26C44 27.3812 44 28.072 43.7592 28.6362C43.5224 29.191 43.1236 29.6618 42.6152 29.9866C42.0982 30.3168 41.417 30.4304 40.0544 30.6574L38 31" stroke="#C85344" stroke-width="1.5" stroke-linecap="round"/>
<path d="M10.0664 40C9.09005 29.2 18.0006 27 22.0004 22M22.0678 31.6706C27.1574 30.2486 30.4216 26.8448 31.6324 21.6966C33.004 15.8661 30.545 7.92653 24.2052 8.00051C24.2052 8.00051 24.8506 10.5192 24.286 11.7528C22.2044 16.3011 15.0005 15.9852 12.665 21.7538C11.2742 24.9816 12.1153 28.5876 14.7323 30.6558C16.3768 31.9556 19.6238 32.3534 22.0678 31.6706Z" stroke="#C85344" stroke-width="1.5" stroke-linecap="round" stroke-linejoin="round"/>
</svg>
